<svg xmlns="http://www.w3.org/2000/svg" width="650.947" height="483.942" viewBox="0 0 650.947 483.942">
    <g data-name="Group 7081">
        <path data-name="Path 24950" d="M106 466.685s-4-44.145-10.648-82.4 0-124.148 0-124.148-70.5-106.857-66.51-149.53 26.75-77.97 78.628-94.153 73.169-23.545 131.7 7.355S325.5 75.3 304.212 150.336s-62.523 108.883-59.865 128.011 9.316 73.573-3.987 116.238-9.316 71.286-9.316 71.286z" transform="translate(157.112 12.203)" style="fill:#d7f0fd"/>
        <path data-name="Path 24951" d="M61.443 402.344s-4.71-29.31 10.984-73.025 4.143-76.289 2.046-96.023c-1.153-10.854 53.135-77.253 75.371-140.943A286.255 286.255 0 0 0 164.971 15" transform="translate(334.153 81.281)" style="stroke:#0b2c7b;fill:none;stroke-miterlimit:10;stroke-width:4px"/>
        <path data-name="Path 24952" d="M29.98 47.585c15.375-11.668 44.379-31.721 86.98-41.07C178.767-7.056 218.11 1.14 286.7 43.4" transform="translate(164.294 1.302)" style="stroke:#0b2c7b;fill:none;stroke-miterlimit:10;stroke-width:4px"/>
        <path data-name="Path 24953" d="M126.706 402.344s4.71-29.31-10.984-73.025-4.143-76.289-2.046-96.023c1.153-10.854-53.135-77.253-75.371-140.943A286.254 286.254 0 0 1 23.178 15" transform="translate(126.782 81.281)" style="stroke:#0b2c7b;fill:none;stroke-miterlimit:10;stroke-width:4px"/>
        <path data-name="Path 24954" d="m258.62 441.713-4.658-130.741S146.864 186.082 140.342 75.83c0 0-10.241-31.226-55.878-8.782S52.8 127.539 52.8 127.539s-27.011 9.759-36.32 32.2c0 0-40.979-89.762 35.389-125.861s139.7 0 139.7 0 53.969 31.219 98.694 30.242 105.26-39.027 105.26-39.027 61.468-45.858 141.555 8.782 27.011 125.861 27.011 125.861-14.9-29.271-27.942-32.2c0 0 20.489-40-26.073-58.543s-72.641-7.8-72.641-7.8S426.254 194.864 323.814 313.9l.932 127.815" transform="translate(29.292 37.612)" style="fill:#d7f0fd"/>
        <path data-name="Path 24955" d="m276.352 450.856-4.5-120.6a40.368 40.368 0 0 0-9.264-24.294c-27.069-32.613-50.073-200.352-89.163-232.405 0 0-35.754-31.714-85-8.6S54.26 127.262 54.26 127.262s-29.148 10.052-39.194 33.161c0 0-44.216-92.453 38.19-129.633s150.741 0 150.741 0 58.237 32.157 106.5 31.154 113.58-40.2 113.58-40.2 74.563-44.292 146.493 12.72c46.562 36.907 42.7 100.707 42.7 100.707" transform="translate(16.708 28.033)" style="stroke:#8d2947;fill:none;stroke-miterlimit:10;stroke-width:4px"/>
        <path data-name="Path 24956" d="m54.945 407.539 4.5-120.6a40.368 40.368 0 0 1 9.264-24.294C95.78 230.029 118.784 62.29 157.874 30.237c0 0 35.754-31.714 85-8.6s34.164 62.308 34.164 62.308" transform="translate(301.974 71.349)" style="stroke:#8d2947;fill:none;stroke-miterlimit:10;stroke-width:4px"/>
        <path data-name="Path 24957" d="M94.384 33.053c36.946 17.466 56.784 53.012 44.314 79.39s-52.536 33.61-89.475 16.144S-7.561 75.583 4.909 49.2s52.529-33.61 89.475-16.144" transform="translate(5.476 128.3)" style="fill:#d7f0fd"/>
        <path data-name="Path 24958" d="M102.077 34.066c40.268 19.036 61.891 57.774 48.3 86.518S93.132 157.2 52.864 138.167-9.028 80.394 4.562 51.65s57.246-36.62 97.515-17.584z" transform="translate(1.718 129.143)" style="stroke:#0b2c7b;fill:none;stroke-miterlimit:10;stroke-width:4px"/>
        <path data-name="Path 24959" d="M23.574 66.715s-3.713-25.981 11.564-41.539" transform="translate(126.776 137.389)" style="stroke:#0b2c7b;fill:none;stroke-miterlimit:10;stroke-width:4px"/>
        <path data-name="Path 24960" d="M94.931 53.048s-10.168-29.5-22.507-33.986" transform="translate(422.356 120.077)" style="stroke:#0b2c7b;fill:none;stroke-miterlimit:10;stroke-width:4px"/>
        <path data-name="Path 24961" d="M98.478 45.462S74.36 56.42 76.171 75.887C78.5 100.95 94.263 99.516 94.263 99.516s-6.867 27.389 16.1 38.04 36.887-5.473 36.887-5.473 24.385 5.388 39.376-10.052 16.965-29.877 12.743-36.874c0 0 19.291-23.779-1.967-41.682-14.926-12.574-30.294-8.613-30.294-8.613s-25.421-18.5-44.425-11.948a40.483 40.483 0 0 0-24.2 22.548" transform="translate(418.497 117.168)" style="fill:#d7f0fd"/>
        <path data-name="Path 24962" d="M102.41 49.7S74.064 62.58 76.188 85.46c2.73 29.454 21.265 27.76 21.265 27.76s-8.065 32.19 18.919 44.712 43.343-6.437 43.343-6.437 28.671 6.329 46.285-11.815 19.936-35.109 14.971-43.33c0 0 22.685-27.949-2.313-48.992-17.532-14.769-35.6-10.118-35.6-10.118s-29.864-21.747-52.2-14.046A47.59 47.59 0 0 0 102.41 49.7z" transform="translate(418.495 117.357)" style="stroke:#0b2c7b;fill:none;stroke-miterlimit:10;stroke-width:4px"/>
    </g>
</svg>
